<svg width="16" height="16" viewBox="0 0 16 16" fill="none" xmlns="http://www.w3.org/2000/svg">
<g clip-path="url(#clip0)">
<path d="M16 6.34562V6.34421C16 6.33087 15.9993 6.31765 15.9982 6.3045C15.9978 6.3009 15.9974 6.29734 15.997 6.29375C15.9959 6.28343 15.9944 6.27322 15.9927 6.26309C15.992 6.25928 15.9913 6.25547 15.9906 6.25168C15.9881 6.23934 15.9852 6.22709 15.9818 6.21506C15.9814 6.21387 15.9812 6.21265 15.9808 6.21146C15.9772 6.19915 15.9729 6.18706 15.9683 6.17512C15.9665 6.17056 15.9646 6.16609 15.9627 6.16156C15.9593 6.1535 15.9556 6.14553 15.9517 6.13768C15.9495 6.13312 15.9473 6.12853 15.945 6.12403C15.9391 6.11306 15.9329 6.10231 15.9262 6.09181C15.9237 6.0879 15.921 6.08415 15.9183 6.08031C15.9131 6.07265 15.9077 6.06515 15.9021 6.05784C15.899 6.05393 15.896 6.05006 15.8928 6.04622C15.8846 6.03625 15.8761 6.0265 15.8671 6.01721C15.8663 6.0165 15.8657 6.01575 15.8649 6.01503C15.8553 6.00518 15.8449 5.9959 15.8343 5.9869C15.833 5.98578 15.8319 5.98453 15.8306 5.98343L15.0312 5.32015V3.28175C15.0312 2.67865 14.5406 2.188 13.9375 2.188H11.257L9.09762 0.395965C8.46156 -0.131785 7.53838 -0.131785 6.90238 0.395965L4.743 2.18797H2.0625C1.45941 2.18797 0.96875 2.67862 0.96875 3.28172V5.32012L0.169406 5.9835C0.168094 5.98459 0.166938 5.98584 0.165625 5.98696C0.155031 5.99596 0.144719 6.00525 0.135031 6.01509C0.134313 6.01581 0.133625 6.01656 0.132906 6.01728C0.123875 6.02656 0.115344 6.03631 0.107125 6.04628C0.103969 6.05009 0.100938 6.054 0.0979062 6.0579C0.09225 6.06525 0.0868438 6.07275 0.081625 6.08037C0.079 6.08422 0.07625 6.08797 0.07375 6.09187C0.0670625 6.10234 0.0608438 6.11309 0.055 6.12409C0.0525937 6.12859 0.0504375 6.13318 0.0482187 6.13775C0.0443438 6.14559 0.0407187 6.15356 0.0372812 6.16162C0.035375 6.16612 0.0334375 6.17062 0.0316875 6.17518C0.0270625 6.18712 0.0227812 6.19918 0.0191562 6.21153C0.0188125 6.21271 0.0185312 6.2139 0.0181875 6.21512C0.0147188 6.22715 0.011875 6.2394 0.009375 6.25175C0.008625 6.25556 0.00796875 6.25934 0.0073125 6.26315C0.00553125 6.27328 0.00409375 6.2835 0.00296875 6.29381C0.00259375 6.2974 0.002125 6.30096 0.0018125 6.30456C0.00075 6.31765 0 6.33087 0 6.34421V6.34562V6.34587V14.2811C0 14.7723 0.207438 15.2157 0.538938 15.5292C0.548344 15.5386 0.557781 15.5479 0.567844 15.5564C0.87275 15.8318 1.27647 15.9998 1.71875 15.9998H14.2812C14.7236 15.9998 15.1273 15.8318 15.4323 15.5563C15.4422 15.5478 15.4516 15.5386 15.4609 15.5293C15.7925 15.2157 16 14.7723 16 14.2811V6.34587C16 6.34581 16 6.34572 16 6.34562ZM2.0625 3.12547H13.9375C14.0237 3.12547 14.0938 3.19556 14.0938 3.28172V6.92803L13.8285 7.14815L8.49894 11.5711C8.20984 11.811 7.79016 11.8109 7.50106 11.5711L2.1715 7.14818L1.90625 6.92803V3.28172C1.90625 3.19556 1.97634 3.12547 2.0625 3.12547ZM0.9375 14.2811V7.34234L1.13912 7.50968C1.13925 7.50978 1.13937 7.5099 1.1395 7.51L5.71666 11.3085L0.9855 14.5507C0.954469 14.4667 0.9375 14.3758 0.9375 14.2811ZM6.46678 11.931L6.90238 12.2925C7.53838 12.8203 8.46163 12.8202 9.09762 12.2925L9.53322 11.931L14.1026 15.0623H1.89737L6.46678 11.931ZM10.2833 11.3085L14.8605 7.51C14.8606 7.5099 14.8607 7.50978 14.8608 7.50968L15.0625 7.34234V14.2811C15.0625 14.3758 15.0455 14.4667 15.0145 14.5507L10.2833 11.3085ZM7.50106 1.11743C7.79016 0.877528 8.20984 0.877528 8.49894 1.11743L9.78897 2.188H6.21103L7.50106 1.11743Z" fill="#5C5C5C"/>
<path d="M4.10938 5.1561C4.10938 5.41497 4.31925 5.62485 4.57812 5.62485H9.01562C9.2745 5.62485 9.48438 5.41497 9.48438 5.1561C9.48438 4.89722 9.2745 4.68735 9.01562 4.68735H4.57812C4.31925 4.68735 4.10938 4.89722 4.10938 5.1561Z" fill="#5C5C5C"/>
<path d="M4.57812 7.49985H11.4219C11.6403 7.49985 11.8232 7.35028 11.8753 7.14816C11.8849 7.11066 11.8906 7.0716 11.8906 7.0311C11.8906 6.77222 11.6807 6.56235 11.4219 6.56235H4.57812C4.31925 6.56235 4.10938 6.77222 4.10938 7.0311C4.10938 7.0716 4.11506 7.11069 4.12472 7.14816C4.17678 7.35032 4.35975 7.49985 4.57812 7.49985Z" fill="#5C5C5C"/>
</g>
<defs>
<clipPath id="clip0">
<rect width="16" height="16" fill="white"/>
</clipPath>
</defs>
</svg>
