<svg width="217" height="48" viewBox="0 0 217 48" fill="none" xmlns="http://www.w3.org/2000/svg">
<path fill-rule="evenodd" clip-rule="evenodd" d="M20.7745 20.9878V14.251L18.4447 19.1741H17.3445L14.9499 14.251V20.9878H13.3967V10.8826H14.9499L17.9269 17.166L20.7745 10.8826H22.3278V20.9878H20.7745Z" fill="#2D9DCA"/>
<path fill-rule="evenodd" clip-rule="evenodd" d="M24.1399 12.3725V10.8178H25.6931V12.3725H24.1399ZM24.1399 20.9878V13.7976H25.5637V20.9878H24.1399Z" fill="#2D9DCA"/>
<path fill-rule="evenodd" clip-rule="evenodd" d="M31.7119 20.9879V16.583C31.7119 15.4818 31.0647 14.9636 30.2881 14.9636C29.5115 14.9636 28.7996 15.4818 28.7996 16.583V20.9879H27.3758V13.7976H28.7996V14.5101C29.3173 13.9919 29.9645 13.7328 30.7411 13.7328C31.453 13.7328 32.1002 13.9919 32.4885 14.3806C33.071 14.8988 33.2004 15.6113 33.2004 16.3887V20.9879H31.7119Z" fill="#2D9DCA"/>
<path fill-rule="evenodd" clip-rule="evenodd" d="M34.6889 12.3725V10.8178H36.2422V12.3725H34.6889ZM34.7537 20.9878V13.7976H36.1775V20.9878H34.7537Z" fill="#2D9DCA"/>
<path fill-rule="evenodd" clip-rule="evenodd" d="M40.19 21.1174C39.0251 21.1174 37.9896 20.9231 37.1482 20.081L38.119 19.1093C38.7015 19.6923 39.4781 19.8866 40.19 19.8866C41.096 19.8866 41.7432 19.5627 41.7432 18.915C41.7432 18.4615 41.4843 18.1376 40.7724 18.0729L39.6075 17.9433C38.2484 17.8138 37.4718 17.2308 37.4718 15.9352C37.4718 14.5101 38.7015 13.7328 40.19 13.7328C41.2902 13.7328 42.1962 13.9919 42.8434 14.5101L41.9374 15.417C41.4843 15.0283 40.8372 14.8988 40.19 14.8988C39.3486 14.8988 38.8956 15.2874 38.8956 15.8057C38.8956 16.2591 39.1545 16.583 39.8664 16.6478L41.0313 16.7773C42.3904 16.9069 43.167 17.5547 43.167 18.7854C43.167 20.3401 41.9374 21.1174 40.19 21.1174Z" fill="#2D9DCA"/>
<path fill-rule="evenodd" clip-rule="evenodd" d="M46.3382 20.9879C44.9791 20.9879 44.3967 20.0162 44.3967 18.9798V15.0284H43.5553V13.9272H44.3967V11.7247H45.8205V13.9272H47.2443V15.0284H45.8852V18.915C45.8852 19.4332 46.1441 19.7571 46.6618 19.7571H47.2443V20.9879H46.3382Z" fill="#2D9DCA"/>
<path fill-rule="evenodd" clip-rule="evenodd" d="M49.4447 17.8138C49.4447 19.0445 50.0919 19.8219 51.2568 19.8219C52.0334 19.8219 52.4864 19.5628 53.0042 19.1093L53.9103 19.9514C53.1984 20.664 52.4864 21.0526 51.1921 21.0526C49.38 21.0526 47.9562 20.081 47.9562 17.3603C47.9562 15.0284 49.1858 13.668 50.9979 13.668C52.9395 13.668 54.0397 15.0931 54.0397 17.1012V17.749H49.4447V17.8138ZM52.4864 15.8705C52.2276 15.3522 51.7745 14.9636 51.0627 14.9636C50.3508 14.9636 49.833 15.3522 49.6388 15.8705C49.5094 16.1943 49.4447 16.3887 49.4447 16.8421H52.6806C52.6806 16.3887 52.6159 16.1943 52.4864 15.8705Z" fill="#2D9DCA"/>
<path fill-rule="evenodd" clip-rule="evenodd" d="M59.4113 15.4818C59.0877 15.1579 58.8288 15.0283 58.3111 15.0283C57.5344 15.0283 56.8873 15.6761 56.8873 16.6478V20.9879H55.4635V13.7976H56.8873V14.5749C57.2756 14.0567 57.9875 13.7328 58.8288 13.7328C59.5407 13.7328 60.0584 13.9271 60.5762 14.4453L59.4113 15.4818Z" fill="#2D9DCA"/>
<path fill-rule="evenodd" clip-rule="evenodd" d="M61.0293 12.3725V10.8178H62.5825V12.3725H61.0293ZM61.0293 20.9878V13.7976H62.453V20.9878H61.0293Z" fill="#2D9DCA"/>
<path fill-rule="evenodd" clip-rule="evenodd" d="M68.9896 20.2753C68.5365 20.7287 67.8246 21.1174 66.8539 21.1174C65.8831 21.1174 65.1712 20.7287 64.7182 20.2753C64.0063 19.5627 63.8768 18.6559 63.8768 17.4251C63.8768 16.1943 64.071 15.2874 64.7182 14.5749C65.1712 14.1215 65.8831 13.7328 66.8539 13.7328C67.8246 13.7328 68.5365 14.1215 68.9896 14.5749C69.7015 15.2874 69.8309 16.1943 69.8309 17.4251C69.8309 18.6559 69.6367 19.5627 68.9896 20.2753ZM67.8894 15.417C67.6305 15.1579 67.2422 15.0283 66.8539 15.0283C66.4008 15.0283 66.0772 15.1579 65.8184 15.417C65.3653 15.8704 65.3006 16.583 65.3006 17.3603C65.3006 18.1376 65.3653 18.915 65.8184 19.3036C66.0772 19.5627 66.4656 19.7571 66.8539 19.7571C67.3069 19.7571 67.6305 19.6275 67.8894 19.3036C68.3424 18.8502 68.4071 18.1376 68.4071 17.3603C68.4071 16.6478 68.3424 15.8704 67.8894 15.417Z" fill="#2D9DCA"/>
<path fill-rule="evenodd" clip-rule="evenodd" d="M78.1148 20.9879V20.2105C77.5971 20.8583 77.0146 21.0526 76.238 21.0526C75.5261 21.0526 74.8789 20.7935 74.4906 20.4049C73.7787 19.6923 73.714 18.4615 73.714 17.3603C73.714 16.2591 73.7787 15.0283 74.4906 14.3158C74.8789 13.9271 75.5261 13.668 76.238 13.668C77.0146 13.668 77.5971 13.8623 78.1148 14.4453V10.8178H79.5386V20.9231H78.1148V20.9879ZM76.5616 15.0283C75.2672 15.0283 75.0731 16.1296 75.0731 17.4251C75.0731 18.7206 75.2672 19.8219 76.5616 19.8219C77.8559 19.8219 78.0501 18.7206 78.0501 17.4251C78.0501 16.1296 77.9207 15.0283 76.5616 15.0283Z" fill="#2D9DCA"/>
<path fill-rule="evenodd" clip-rule="evenodd" d="M82.2568 17.8138C82.2568 19.0445 82.904 19.8219 84.0689 19.8219C84.8455 19.8219 85.2986 19.5628 85.8163 19.1093L86.7223 19.9514C86.0104 20.664 85.2986 21.0526 84.0042 21.0526C82.1921 21.0526 80.7683 20.081 80.7683 17.3603C80.7683 15.0284 81.9979 13.668 83.81 13.668C85.7516 13.668 86.8518 15.0931 86.8518 17.1012V17.749H82.2568V17.8138ZM85.2986 15.8705C85.0397 15.3522 84.5867 14.9636 83.8748 14.9636C83.1629 14.9636 82.6451 15.3522 82.451 15.8705C82.3215 16.1943 82.2568 16.3887 82.2568 16.8421H85.4927C85.4927 16.3887 85.428 16.1943 85.2986 15.8705Z" fill="#2D9DCA"/>
<path fill-rule="evenodd" clip-rule="evenodd" d="M16.309 26.2348V28.3724H20.8392V31.0931H16.309V35.7571H13.3319V23.5789H21.6159V26.2348H16.309Z" fill="#2D9DCA"/>
<path d="M25.7578 23.5789H22.7808V35.7571H25.7578V23.5789Z" fill="#2D9DCA"/>
<path fill-rule="evenodd" clip-rule="evenodd" d="M34.3653 35.7571L30.4823 29.668V35.7571H27.5052V23.5789H30.0939L33.977 29.7328V23.5789H37.0188V35.7571H34.3653Z" fill="#2D9DCA"/>
<path fill-rule="evenodd" clip-rule="evenodd" d="M45.4969 35.7571L44.9144 33.9433H41.1607L40.5783 35.7571H37.4718L41.8726 23.5789H44.2025L48.6033 35.7571H45.4969ZM43.167 28.2429L42.0668 31.4818H44.2025L43.167 28.2429Z" fill="#2D9DCA"/>
<path fill-rule="evenodd" clip-rule="evenodd" d="M56.0459 35.7571L52.1628 29.668V35.7571H49.1211V23.5789H51.7745L55.6576 29.7328V23.5789H58.6346V35.7571H56.0459Z" fill="#2D9DCA"/>
<path fill-rule="evenodd" clip-rule="evenodd" d="M59.6701 35.7571V33.4251L64.3299 26.2348H59.8643V23.5789H67.8894V25.9109L63.2296 33.1012H67.6952L66.5303 35.7571H59.6701Z" fill="#2D9DCA"/>
<path fill-rule="evenodd" clip-rule="evenodd" d="M75.7203 35.7571L75.1378 33.9433H71.3842L70.8017 35.7571H67.6952L72.0961 23.5789H74.4259L78.8267 35.7571H75.7203ZM73.3257 28.2429L72.2255 31.4818H74.3612L73.3257 28.2429Z" fill="#2D9DCA"/>
<path fill-rule="evenodd" clip-rule="evenodd" d="M80.0564 32.4534C80.7035 32.8421 82.0626 33.166 82.8392 33.166C84.0042 33.166 84.5866 32.7773 84.5866 32.0648C84.5866 31.8057 84.5219 31.5466 84.3278 31.3522C84.1983 31.2227 83.9395 31.0931 83.5511 31.0283L82.0626 30.834C80.9624 30.7045 80.1858 30.3158 79.6033 29.7328C79.0209 29.1498 78.762 28.3077 78.762 27.2713C78.762 25.0688 80.4447 23.4494 83.2276 23.4494C84.3925 23.4494 85.6868 23.7733 86.5282 24.162L85.881 26.753C84.9749 26.0405 83.6806 26.0405 83.1628 26.0405C82.1273 26.0405 81.6743 26.6235 81.6743 27.1417C81.6743 27.2713 81.739 27.5304 81.9332 27.7247C82.0626 27.8543 82.3215 28.0486 82.7745 28.1134L84.263 28.3077C85.3632 28.4373 86.1399 28.8259 86.6576 29.3441C87.3048 29.9919 87.5637 30.8988 87.5637 32C87.5637 34.4615 85.428 35.8219 82.8392 35.8219C81.4154 35.8219 80.1858 35.5628 79.1503 34.9798" fill="#2D9DCA"/>
<path d="M7.83087 10.9474H6.40707V19.2389H7.83087V10.9474Z" fill="#AC2048"/>
<path d="M7.83087 19.1741H6.40707V27.4656H7.83087V19.1741Z" fill="#D48238"/>
<path d="M7.83087 27.4656H6.40707V35.7571H7.83087V27.4656Z" fill="#E2AB52"/>
<path d="M120.635 6.15382L120.829 7.83803L119.664 9.39268L118.564 9.84612L117.916 10.8178L116.04 16.3239L116.169 21.9595L119.017 23.3846L119.211 23.9676L119.081 24.3562L119.47 25.0688H121.088L121.476 26.9473L120.505 30.4453L120.052 31.1579L120.441 43.4008L130.084 43.336L130.213 39.0607L133.061 38.9311L138.626 30.4453L139.015 30.3158L139.338 29.7975L139.144 29.2145L139.209 28.2429L138.756 27.336L138.885 26.6882L138.691 25.9109L138.173 25.0688L137.008 23.9028L136.814 23.0607L137.073 22.5425L136.749 21.506L136.879 21.0526L136.814 20.6639L137.397 20.2753L139.015 14.3158L137.267 12.0486L137.138 11.5303L135.002 11.4656L134.614 10.5587L134.808 9.52224L133.708 8.09714L133.643 7.64369L129.695 6.93114L129.566 6.4777H127.948L127.689 6.15382L126.912 6.34815L126.395 5.89471L124.582 5.50604L120.635 6.15382Z" fill="#2D9DCA"/>
<path d="M152.088 35.7571V36.1457C152.088 36.2105 152.088 36.2753 152.152 36.2753C152.217 36.3401 152.217 36.3401 152.282 36.3401H154.676C154.741 36.3401 154.806 36.3401 154.806 36.4048C154.871 36.4696 154.871 36.4696 154.871 36.5344V37.7652C154.871 37.8299 154.871 37.8947 154.806 37.8947C154.741 37.9595 154.741 37.9595 154.676 37.9595H152.282C152.217 37.9595 152.152 37.9595 152.152 38.0243C152.088 38.089 152.088 38.089 152.088 38.1538V38.4777C152.088 38.5425 152.088 38.6073 152.152 38.6073C152.217 38.672 152.217 38.672 152.282 38.672H155C155.065 38.672 155.129 38.672 155.129 38.7368C155.194 38.8016 155.194 38.8016 155.194 38.8664V40.1619C155.194 40.2267 155.194 40.2915 155.129 40.2915C155.065 40.3563 155.065 40.3563 155 40.3563H150.534C150.47 40.3563 150.405 40.3563 150.405 40.2915C150.34 40.2267 150.34 40.2267 150.34 40.1619V34.1376C150.34 34.0729 150.34 34.0081 150.405 34.0081C150.47 33.9433 150.47 33.9433 150.534 33.9433H155C155.065 33.9433 155.129 33.9433 155.129 34.0081C155.194 34.0729 155.194 34.0729 155.194 34.1376V35.3036C155.194 35.3684 155.194 35.4332 155.129 35.4332C155.065 35.498 155.065 35.498 155 35.498H152.282C152.217 35.498 152.152 35.498 152.152 35.5627C152.088 35.6275 152.088 35.6923 152.088 35.7571Z" fill="#2D9DCA"/>
<path d="M161.795 34.1376V40.1619C161.795 40.2267 161.795 40.2915 161.731 40.2915C161.666 40.3563 161.666 40.3563 161.601 40.3563H160.307C160.242 40.3563 160.177 40.3563 160.113 40.2915C160.048 40.2267 159.983 40.2267 159.983 40.1619L157.718 36.9231C157.653 36.8583 157.653 36.8583 157.589 36.8583C157.524 36.8583 157.524 36.9231 157.524 36.9878V40.1619C157.524 40.2267 157.524 40.2915 157.459 40.2915C157.395 40.3563 157.395 40.3563 157.33 40.3563H156.036C155.971 40.3563 155.906 40.3563 155.906 40.2915C155.841 40.2267 155.841 40.2267 155.841 40.1619V34.1376C155.841 34.0729 155.841 34.0081 155.906 34.0081C155.971 33.9433 155.971 33.9433 156.036 33.9433H157.33C157.395 33.9433 157.459 33.9433 157.524 34.0081C157.589 34.0729 157.653 34.0729 157.653 34.1376L159.919 37.3765C159.983 37.4413 159.983 37.4413 160.048 37.4413C160.113 37.4413 160.113 37.3765 160.113 37.3765V34.2024C160.113 34.1376 160.113 34.0729 160.177 34.0729C160.242 34.0081 160.242 34.0081 160.307 34.0081H161.601C161.666 34.0081 161.731 34.0081 161.731 34.0729C161.795 34.0081 161.795 34.0729 161.795 34.1376Z" fill="#2D9DCA"/>
<path d="M167.167 35.498H165.937C165.873 35.498 165.808 35.498 165.808 35.5628C165.743 35.6276 165.743 35.6276 165.743 35.6923V40.162C165.743 40.2267 165.743 40.2915 165.679 40.2915C165.614 40.3563 165.614 40.3563 165.549 40.3563H164.255C164.19 40.3563 164.125 40.3563 164.125 40.2915C164.061 40.2267 164.061 40.2267 164.061 40.162V35.7571C164.061 35.6923 164.061 35.6276 163.996 35.6276C163.931 35.5628 163.931 35.5628 163.866 35.5628H162.637C162.572 35.5628 162.507 35.5628 162.507 35.498C162.443 35.4332 162.443 35.4332 162.443 35.3684V34.2024C162.443 34.1377 162.443 34.0729 162.507 34.0729C162.572 34.0081 162.572 34.0081 162.637 34.0081H167.296C167.361 34.0081 167.426 34.0081 167.426 34.0729C167.491 34.1377 167.491 34.1377 167.491 34.2024V35.3684C167.491 35.4332 167.491 35.498 167.426 35.498C167.296 35.498 167.232 35.498 167.167 35.498Z" fill="#2D9DCA"/>
<path d="M169.562 40.3563H168.267C168.203 40.3563 168.138 40.3563 168.138 40.2915C168.073 40.2267 168.073 40.2267 168.073 40.1619V34.1376C168.073 34.0729 168.073 34.0081 168.138 34.0081C168.203 33.9433 168.203 33.9433 168.267 33.9433H170.985C171.309 33.9433 171.633 34.0081 171.956 34.1376C172.215 34.2672 172.474 34.3967 172.668 34.5911C172.862 34.7854 173.056 35.0445 173.121 35.3036C173.251 35.5627 173.315 35.8866 173.315 36.2105C173.315 36.4048 173.315 36.5992 173.251 36.7935C173.186 36.9878 173.121 37.1822 173.056 37.3117C172.992 37.506 172.862 37.6356 172.797 37.7652C172.668 37.8947 172.539 38.0243 172.409 38.089C172.344 38.1538 172.344 38.1538 172.344 38.2186C172.344 38.2834 172.344 38.3482 172.344 38.3482C172.539 38.672 172.797 38.9311 173.056 39.255C173.315 39.5789 173.509 39.838 173.704 40.0971C173.768 40.1619 173.768 40.2267 173.704 40.2267C173.704 40.2915 173.639 40.2915 173.574 40.2915H171.956C171.891 40.2915 171.827 40.2915 171.762 40.2267C171.697 40.1619 171.633 40.1619 171.633 40.0971C171.438 39.838 171.244 39.5789 171.05 39.3198C170.856 39.0607 170.662 38.8016 170.532 38.5425C170.468 38.4777 170.468 38.4777 170.403 38.4129C170.338 38.3482 170.273 38.3482 170.209 38.3482H170.015C169.95 38.3482 169.885 38.3482 169.885 38.4129C169.82 38.4777 169.82 38.4777 169.82 38.5425V40.1619C169.82 40.2267 169.82 40.2915 169.756 40.2915C169.626 40.3563 169.626 40.3563 169.562 40.3563ZM169.95 36.8583H170.856C170.921 36.8583 170.985 36.8583 171.05 36.7935C171.115 36.7935 171.18 36.7287 171.244 36.6639C171.309 36.5992 171.374 36.5344 171.374 36.4696C171.438 36.4048 171.438 36.2753 171.438 36.2105C171.438 36.1457 171.438 36.0809 171.438 36.0162C171.438 35.9514 171.374 35.8866 171.309 35.7571C171.244 35.6923 171.18 35.6275 171.115 35.5627C171.05 35.498 170.921 35.498 170.791 35.498H169.885C169.82 35.498 169.756 35.498 169.756 35.5627C169.691 35.6275 169.691 35.6275 169.691 35.6923V36.5992C169.691 36.6639 169.691 36.7287 169.756 36.7287C169.885 36.8583 169.885 36.8583 169.95 36.8583Z" fill="#2D9DCA"/>
<path d="M175.904 35.7571V36.1457C175.904 36.2105 175.904 36.2753 175.969 36.2753C176.033 36.3401 176.033 36.3401 176.098 36.3401H178.493C178.557 36.3401 178.622 36.3401 178.622 36.4048C178.687 36.4696 178.687 36.4696 178.687 36.5344V37.7652C178.687 37.8299 178.687 37.8947 178.622 37.8947C178.557 37.9595 178.557 37.9595 178.493 37.9595H176.098C176.033 37.9595 175.969 37.9595 175.969 38.0243C175.904 38.089 175.904 38.089 175.904 38.1538V38.4777C175.904 38.5425 175.904 38.6073 175.969 38.6073C176.033 38.672 176.033 38.672 176.098 38.672H178.816C178.881 38.672 178.946 38.672 178.946 38.7368C179.01 38.8016 179.01 38.8016 179.01 38.8664V40.1619C179.01 40.2267 179.01 40.2915 178.946 40.2915C178.881 40.3563 178.881 40.3563 178.816 40.3563H174.351C174.286 40.3563 174.221 40.3563 174.221 40.2915C174.157 40.2267 174.157 40.2267 174.157 40.1619V34.1376C174.157 34.0729 174.157 34.0081 174.221 34.0081C174.286 33.9433 174.286 33.9433 174.351 33.9433H178.816C178.881 33.9433 178.946 33.9433 178.946 34.0081C179.01 34.0729 179.01 34.0729 179.01 34.1376V35.3036C179.01 35.3684 179.01 35.4332 178.946 35.4332C178.881 35.498 178.881 35.498 178.816 35.498H176.098C176.033 35.498 175.969 35.498 175.969 35.5627C175.969 35.6275 175.904 35.6923 175.904 35.7571Z" fill="#2D9DCA"/>
<path d="M186.582 35.5628H185.353C185.288 35.5628 185.223 35.5628 185.223 35.6276C185.159 35.6923 185.159 35.6923 185.159 35.7571V40.162C185.159 40.2267 185.159 40.2915 185.094 40.2915C185.029 40.3563 185.029 40.3563 184.964 40.3563H183.67C183.605 40.3563 183.541 40.3563 183.541 40.2915C183.476 40.2267 183.476 40.2267 183.476 40.162V35.7571C183.476 35.6923 183.476 35.6276 183.411 35.6276C183.347 35.5628 183.347 35.5628 183.282 35.5628H182.052C181.987 35.5628 181.923 35.5628 181.923 35.498C181.858 35.4332 181.858 35.4332 181.858 35.3684V34.2024C181.858 34.1377 181.858 34.0729 181.923 34.0729C181.987 34.0081 181.987 34.0081 182.052 34.0081H186.712C186.777 34.0081 186.841 34.0081 186.841 34.0729C186.906 34.1377 186.906 34.1377 186.906 34.2024V35.3684C186.906 35.4332 186.906 35.498 186.841 35.498C186.712 35.498 186.647 35.5628 186.582 35.5628Z" fill="#2D9DCA"/>
<path d="M186.647 37.1174C186.647 36.664 186.712 36.2105 186.906 35.8219C187.1 35.4332 187.294 35.0446 187.618 34.7854C187.942 34.4616 188.265 34.2672 188.653 34.0729C189.042 33.8786 189.495 33.8138 189.948 33.8138C190.401 33.8138 190.854 33.8786 191.242 34.0729C191.63 34.2672 192.019 34.4616 192.278 34.7854C192.601 35.1093 192.795 35.4332 192.99 35.8219C193.184 36.2105 193.248 36.664 193.248 37.1174C193.248 37.5709 193.184 38.0243 192.99 38.413C192.795 38.8016 192.601 39.1903 192.278 39.4494C191.954 39.7733 191.63 39.9676 191.242 40.162C190.854 40.3563 190.401 40.4211 189.948 40.4211C189.495 40.4211 189.042 40.3563 188.653 40.162C188.265 39.9676 187.877 39.7733 187.618 39.4494C187.294 39.1255 187.1 38.8016 186.906 38.413C186.712 38.0243 186.647 37.5709 186.647 37.1174ZM188.33 37.1174C188.33 37.3118 188.395 37.5709 188.459 37.7652C188.524 37.9595 188.653 38.1539 188.783 38.2834C188.912 38.413 189.106 38.5425 189.301 38.6721C189.495 38.7369 189.689 38.8016 189.883 38.8016C190.077 38.8016 190.336 38.7369 190.466 38.6721C190.66 38.6073 190.854 38.4777 190.983 38.2834C191.113 38.1539 191.242 37.9595 191.307 37.7652C191.372 37.5709 191.436 37.3765 191.436 37.1174C191.436 36.9231 191.372 36.664 191.307 36.4697C191.242 36.2753 191.113 36.081 190.983 35.9514C190.854 35.8219 190.66 35.6923 190.466 35.5628C190.271 35.498 190.077 35.4332 189.883 35.4332C189.689 35.4332 189.43 35.498 189.301 35.5628C189.106 35.6275 188.912 35.7571 188.783 35.9514C188.653 36.081 188.524 36.2753 188.459 36.4697C188.395 36.7288 188.33 36.9231 188.33 37.1174Z" fill="#2D9DCA"/>
<path d="M193.572 40.1619V34.1376C193.572 34.0729 193.572 34.0081 193.637 34.0081C193.701 33.9433 193.701 33.9433 193.766 33.9433H196.161C197.067 33.9433 197.843 34.2024 198.426 34.7206C198.749 35.0445 199.008 35.3684 199.138 35.7571C199.332 36.1457 199.397 36.5992 199.397 37.1174C199.397 37.6356 199.332 38.089 199.138 38.4777C198.944 38.8664 198.749 39.255 198.426 39.5141C198.102 39.7733 197.779 39.9676 197.39 40.0971C197.002 40.2267 196.614 40.2915 196.161 40.2915H193.766C193.701 40.2915 193.637 40.2915 193.637 40.2267L193.572 40.1619ZM195.514 38.7368H196.161C196.355 38.7368 196.484 38.7368 196.678 38.672C196.873 38.6073 197.002 38.5425 197.132 38.4129C197.261 38.2834 197.39 38.1538 197.455 37.9595C197.52 37.7652 197.585 37.5061 197.585 37.1174C197.585 36.7935 197.52 36.5344 197.455 36.2753C197.39 36.0809 197.261 35.8866 197.132 35.8218C197.002 35.6923 196.808 35.6275 196.678 35.5627C196.484 35.498 196.355 35.498 196.161 35.498H195.514C195.449 35.498 195.384 35.498 195.384 35.5627C195.319 35.6275 195.319 35.6275 195.319 35.6923V38.4777C195.319 38.5425 195.319 38.6073 195.384 38.6073C195.449 38.7368 195.449 38.7368 195.514 38.7368Z" fill="#2D9DCA"/>
<path d="M199.656 37.1174C199.656 36.664 199.72 36.2105 199.914 35.8219C200.109 35.4332 200.303 35.0446 200.626 34.7854C200.95 34.4616 201.273 34.2672 201.662 34.0729C202.05 33.8786 202.503 33.8138 202.956 33.8138C203.409 33.8138 203.862 33.8786 204.251 34.0729C204.639 34.2672 205.027 34.4616 205.286 34.7854C205.61 35.1093 205.804 35.4332 205.998 35.8219C206.192 36.2105 206.257 36.664 206.257 37.1174C206.257 37.5709 206.192 38.0243 205.998 38.413C205.804 38.8016 205.61 39.1903 205.286 39.4494C204.962 39.7733 204.639 39.9676 204.251 40.162C203.862 40.3563 203.409 40.4211 202.956 40.4211C202.503 40.4211 202.05 40.3563 201.662 40.162C201.273 39.9676 200.885 39.7733 200.626 39.4494C200.303 39.1255 200.109 38.8016 199.914 38.413C199.72 38.0243 199.656 37.5709 199.656 37.1174ZM201.403 37.1174C201.403 37.3118 201.468 37.5709 201.532 37.7652C201.597 37.9595 201.727 38.1539 201.856 38.2834C201.985 38.413 202.18 38.5425 202.374 38.6721C202.568 38.7369 202.762 38.8016 202.956 38.8016C203.15 38.8016 203.409 38.7369 203.539 38.6721C203.733 38.6073 203.927 38.4777 204.056 38.2834C204.186 38.1539 204.315 37.9595 204.38 37.7652C204.445 37.5709 204.509 37.3765 204.509 37.1174C204.509 36.9231 204.445 36.664 204.38 36.4697C204.315 36.2753 204.186 36.081 204.056 35.9514C203.927 35.8219 203.733 35.6923 203.539 35.5628C203.344 35.498 203.15 35.4332 202.956 35.4332C202.762 35.4332 202.503 35.498 202.374 35.5628C202.18 35.6275 201.985 35.7571 201.856 35.9514C201.727 36.081 201.597 36.2753 201.532 36.4697C201.403 36.7288 201.403 36.9231 201.403 37.1174Z" fill="#2D9DCA"/>
<path d="M207.422 38.1539C207.745 38.3482 208.069 38.5425 208.392 38.6073C208.716 38.7369 208.975 38.8016 209.234 38.8016C209.493 38.8016 209.687 38.7369 209.816 38.6721C209.946 38.6073 210.01 38.4777 210.01 38.3482C210.01 38.2834 210.01 38.2186 209.946 38.1539C209.881 38.0891 209.816 38.0891 209.687 38.0243C209.622 38.0243 209.493 37.9595 209.363 37.9595C209.234 37.9595 209.104 37.8948 208.975 37.8948C208.846 37.8948 208.716 37.83 208.522 37.83C208.328 37.83 208.198 37.7652 208.004 37.7004C207.81 37.6356 207.616 37.5709 207.486 37.4413C207.292 37.3765 207.163 37.247 207.033 37.0526C206.904 36.9231 206.775 36.7288 206.71 36.5344C206.645 36.3401 206.58 36.081 206.58 35.8219C206.58 35.4332 206.645 35.1093 206.839 34.8502C206.969 34.5911 207.228 34.3968 207.422 34.2024C207.681 34.0729 207.939 33.9433 208.263 33.8786C208.587 33.8138 208.846 33.8138 209.104 33.8138C209.622 33.8138 210.01 33.8786 210.399 34.0081C210.787 34.1377 211.175 34.332 211.499 34.6559C211.564 34.7207 211.564 34.7207 211.564 34.7854C211.564 34.8502 211.564 34.915 211.499 34.915L210.787 35.8867C210.722 35.9514 210.722 35.9514 210.658 35.9514C210.593 35.9514 210.528 35.9514 210.528 35.8867C210.205 35.6923 209.946 35.5628 209.687 35.498C209.428 35.4332 209.169 35.3684 208.975 35.3684C208.91 35.3684 208.846 35.3684 208.781 35.3684C208.716 35.3684 208.587 35.3684 208.522 35.4332C208.457 35.4332 208.392 35.498 208.328 35.5628C208.263 35.6275 208.263 35.6923 208.263 35.7571C208.263 35.8219 208.328 35.8867 208.457 35.9514C208.587 36.0162 208.716 36.081 208.91 36.1458C209.04 36.2105 209.234 36.2105 209.363 36.2753C209.493 36.2753 209.622 36.3401 209.622 36.3401C209.816 36.4049 210.075 36.4697 210.334 36.5344C210.593 36.5992 210.852 36.7288 211.046 36.8583C211.24 36.9879 211.434 37.247 211.628 37.4413C211.758 37.7004 211.823 38.0243 211.823 38.3482C211.823 38.6721 211.758 38.996 211.628 39.2551C211.499 39.5142 211.305 39.7085 211.111 39.9028C210.917 40.0972 210.658 40.162 210.334 40.2915C210.01 40.3563 209.687 40.4211 209.299 40.4211C208.975 40.4211 208.716 40.4211 208.457 40.3563C208.198 40.2915 207.939 40.2267 207.745 40.162C207.486 40.0972 207.292 39.9676 207.098 39.8381C206.904 39.7085 206.71 39.579 206.58 39.4494C206.516 39.3846 206.516 39.3846 206.516 39.3199C206.516 39.2551 206.516 39.1903 206.58 39.1255L207.228 38.1539C207.292 38.0891 207.292 38.0891 207.357 38.0891C207.292 38.0891 207.357 38.0891 207.422 38.1539Z" fill="#2D9DCA"/>
<path d="M153.188 11.336C153.965 11.336 154.482 11.7895 154.612 12.5668L154.676 12.8259H156.1L156.036 12.4372C155.777 10.9474 154.676 9.97571 153.188 9.97571C152.347 9.97571 151.635 10.2996 151.117 10.8178C150.34 11.5951 150.34 12.3725 150.34 13.9919C150.34 15.6113 150.34 16.3887 151.117 17.166C151.635 17.6842 152.411 18.0081 153.188 18.0081C154.029 18.0081 154.806 17.6842 155.388 17.0364C155.906 16.5182 156.1 15.8704 156.1 14.9636V13.4737H152.864V14.834H154.676V15.0931C154.676 15.6113 154.612 15.9352 154.353 16.1943C154.094 16.5182 153.706 16.7126 153.253 16.7126C152.864 16.7126 152.476 16.583 152.217 16.3239C151.894 15.9352 151.829 15.6113 151.829 14.0567C151.829 12.502 151.894 12.1781 152.217 11.7895C152.411 11.4656 152.8 11.336 153.188 11.336Z" fill="#2D9DCA"/>
<path d="M159.595 9.97571C158.754 9.97571 158.042 10.2996 157.524 10.8178C156.747 11.5951 156.747 12.3725 156.747 13.9919C156.747 15.6113 156.747 16.3887 157.524 17.166C158.106 17.749 158.818 18.0081 159.595 18.0081C160.436 18.0081 161.148 17.6842 161.666 17.166C162.443 16.3887 162.443 15.6113 162.443 13.9919C162.443 12.3725 162.443 11.5951 161.666 10.8178C161.084 10.2996 160.372 9.97571 159.595 9.97571ZM161.019 13.9919C161.019 15.5466 160.954 15.8704 160.63 16.2591C160.113 16.7773 159.077 16.7773 158.56 16.2591C158.236 15.8704 158.171 15.5466 158.171 13.9919C158.171 12.4372 158.236 12.1134 158.56 11.7247C158.818 11.4656 159.207 11.2713 159.595 11.2713C159.983 11.2713 160.372 11.4008 160.63 11.7247C160.954 12.1134 161.019 12.4372 161.019 13.9919Z" fill="#2D9DCA"/>
<path d="M167.879 13.8623C168.332 13.4737 168.591 12.8907 168.591 12.3077C168.591 10.9473 167.62 10.0405 166.132 10.0405H163.09V17.9433H166.261C167.814 17.9433 168.72 17.0364 168.72 15.6113C168.72 14.8988 168.461 14.251 167.879 13.8623ZM166.132 13.2793H164.578V11.4008H166.132C166.649 11.4008 167.232 11.5303 167.232 12.3077C167.232 13.1498 166.52 13.2793 166.132 13.2793ZM166.196 14.5749C166.908 14.5749 167.361 14.9635 167.361 15.5465C167.361 16.1943 166.908 16.583 166.196 16.583H164.514V14.5749H166.196Z" fill="#2D9DCA"/>
<path d="M170.985 10.0405H169.562V17.9433H170.985V10.0405Z" fill="#2D9DCA"/>
<path d="M171.891 17.9433H177.004V16.6478H173.315V14.6397H176.486V13.2793H173.315V11.4008H177.004V10.0405H171.891V17.9433Z" fill="#2D9DCA"/>
<path d="M183.217 12.3725C183.217 10.9473 182.246 10.0405 180.758 10.0405H177.651V17.9433H179.075V14.7044H180.305L181.987 17.9433H183.605L181.793 14.5101C182.699 14.1862 183.217 13.4089 183.217 12.3725ZM181.793 12.3725C181.793 13.2146 181.211 13.3441 180.693 13.3441H179.075V11.336H180.693C181.081 11.4008 181.793 11.5303 181.793 12.3725Z" fill="#2D9DCA"/>
<path d="M188.653 15.0931L185.288 10.0405H184.058V17.9433H185.482V12.8907L188.848 17.9433H190.077V10.0405H188.653V15.0931Z" fill="#2D9DCA"/>
<path d="M193.831 9.97571C193.054 9.97571 192.278 10.2996 191.76 10.8178C190.983 11.5951 190.983 12.3725 190.983 13.9919C190.983 15.6113 190.983 16.3887 191.76 17.166C192.342 17.749 193.054 18.0081 193.831 18.0081C194.672 18.0081 195.384 17.6842 195.902 17.166C196.679 16.3887 196.678 15.6113 196.678 13.9919C196.678 12.3725 196.679 11.5951 195.902 10.8178C195.384 10.2996 194.672 9.97571 193.831 9.97571ZM195.319 13.9919C195.319 15.5466 195.255 15.8704 194.931 16.2591C194.413 16.7773 193.378 16.7773 192.86 16.2591C192.537 15.8704 192.472 15.5466 192.472 13.9919C192.472 12.4372 192.537 12.1134 192.86 11.7247C193.119 11.4656 193.507 11.2713 193.896 11.2713C194.284 11.2713 194.672 11.4008 194.931 11.7247C195.255 12.1134 195.319 12.4372 195.319 13.9919Z" fill="#2D9DCA"/>
<path d="M204.833 10.8178C204.315 10.2996 203.603 10.0405 202.762 10.0405H199.914V17.9433H202.762C203.603 17.9433 204.315 17.6842 204.833 17.166C205.674 16.3239 205.674 15.0931 205.674 14.0567V13.9271V13.7976C205.61 12.7611 205.61 11.5951 204.833 10.8178ZM204.186 13.7976V13.9919C204.186 14.7692 204.186 15.7409 203.797 16.1295C203.539 16.4534 203.15 16.583 202.633 16.583H201.403V11.336H202.633C203.15 11.336 203.539 11.4656 203.797 11.7895C204.186 12.2429 204.186 13.0202 204.186 13.7976Z" fill="#2D9DCA"/>
<path d="M206.58 17.9433H211.693V16.6478H208.004V14.6397H211.175V13.2793H208.004V11.4008H211.693V10.0405H206.58V17.9433Z" fill="#2D9DCA"/>
<path d="M154.094 30.5749C152.994 30.5749 152.088 30.1863 151.311 29.4737C150.858 29.0203 150.599 28.5021 150.47 27.9191C150.34 27.3361 150.276 26.494 150.276 25.3928C150.276 24.2915 150.34 23.4494 150.47 22.8664C150.599 22.2834 150.858 21.7652 151.311 21.3118C152.088 20.5345 152.994 20.2106 154.094 20.2106C156.035 20.2106 157.524 21.3766 157.848 23.4494H155.841C155.647 22.5426 155.065 22.0243 154.094 22.0243C153.576 22.0243 153.123 22.2187 152.8 22.5426C152.411 22.996 152.282 23.4494 152.282 25.4575C152.282 27.4656 152.347 27.9191 152.8 28.3725C153.123 28.7612 153.511 28.8907 154.094 28.8907C155.065 28.8907 155.582 28.3077 155.841 27.4656H157.848C157.524 29.409 156.035 30.5749 154.094 30.5749Z" fill="#2D9DCA"/>
<path d="M164.967 29.4089C164.255 30.1215 163.349 30.5101 162.184 30.5101C161.019 30.5101 160.113 30.1215 159.401 29.4089C158.365 28.3725 158.365 27.0769 158.365 25.3279C158.365 23.5789 158.365 22.2834 159.401 21.247C160.113 20.5344 161.019 20.1458 162.184 20.1458C163.349 20.1458 164.255 20.5344 164.967 21.247C166.002 22.2834 166.002 23.5789 166.002 25.3279C166.002 27.0769 166.002 28.3725 164.967 29.4089ZM163.478 22.4777C163.219 22.1538 162.766 21.9595 162.184 21.9595C161.666 21.9595 161.148 22.1538 160.889 22.4777C160.501 22.9312 160.372 23.3846 160.372 25.3279C160.372 27.2713 160.501 27.7895 160.889 28.1781C161.148 28.502 161.666 28.6964 162.184 28.6964C162.701 28.6964 163.154 28.502 163.478 28.1781C163.866 27.7247 163.996 27.2713 163.996 25.3279C163.996 23.3846 163.866 22.8664 163.478 22.4777Z" fill="#2D9DCA"/>
<path d="M173.056 30.4454L171.05 26.3644H169.626V30.4454H167.62V20.2106H171.633C173.704 20.2106 174.933 21.6357 174.933 23.3199C174.933 24.745 174.027 25.6519 173.056 26.0405L175.386 30.4454H173.056ZM171.503 22.0243H169.626V24.745H171.503C172.409 24.745 172.927 24.162 172.927 23.3847C172.992 22.5426 172.409 22.0243 171.503 22.0243Z" fill="#2D9DCA"/>
<path d="M183.088 29.4737C182.44 30.1215 181.47 30.4454 180.37 30.4454H176.681V20.2106H180.37C181.405 20.2106 182.376 20.5345 183.088 21.1822C184.253 22.3482 184.123 23.7733 184.123 25.2632C184.123 26.8179 184.253 28.3077 183.088 29.4737ZM181.664 22.6073C181.34 22.2187 180.887 21.9596 180.175 21.9596H178.687V28.6316H180.175C180.887 28.6316 181.34 28.4373 181.664 27.9839C182.052 27.5304 182.117 26.8179 182.117 25.2632C182.117 23.7085 182.052 23.0608 181.664 22.6073Z" fill="#2D9DCA"/>
<path d="M192.019 29.4089C191.307 30.1215 190.401 30.5101 189.236 30.5101C188.071 30.5101 187.165 30.1215 186.453 29.4089C185.418 28.3725 185.418 27.0769 185.418 25.3279C185.418 23.5789 185.418 22.2834 186.453 21.247C187.165 20.5344 188.071 20.1458 189.236 20.1458C190.401 20.1458 191.307 20.5344 192.019 21.247C193.054 22.2834 193.054 23.5789 193.054 25.3279C193.054 27.0769 193.054 28.3725 192.019 29.4089ZM190.53 22.4777C190.271 22.1538 189.818 21.9595 189.236 21.9595C188.718 21.9595 188.2 22.1538 187.942 22.4777C187.553 22.9312 187.424 23.3846 187.424 25.3279C187.424 27.2713 187.553 27.7895 187.942 28.1781C188.2 28.502 188.718 28.6964 189.236 28.6964C189.754 28.6964 190.207 28.502 190.53 28.1781C190.919 27.7247 191.048 27.2713 191.048 25.3279C191.048 23.3846 190.919 22.8664 190.53 22.4777Z" fill="#2D9DCA"/>
<path d="M199.008 30.4454H194.737V20.2106H198.879C200.885 20.2106 202.05 21.3118 202.05 23.0608C202.05 24.2268 201.274 24.9393 200.756 25.1984C201.403 25.4575 202.18 26.1053 202.18 27.5304C202.115 29.409 200.82 30.4454 199.008 30.4454ZM198.685 22.0243H196.743V24.3563H198.685C199.526 24.3563 199.979 23.9029 199.979 23.1903C199.979 22.4778 199.526 22.0243 198.685 22.0243ZM198.814 26.1701H196.743V28.6964H198.814C199.72 28.6964 200.173 28.1134 200.173 27.4009C200.109 26.6883 199.72 26.1701 198.814 26.1701Z" fill="#2D9DCA"/>
<path d="M209.622 30.4454L209.04 28.6316H205.415L204.768 30.4454H202.697L206.451 20.2106H208.004L211.758 30.4454H209.622ZM207.228 23.2551L205.933 27.0122H208.457L207.228 23.2551Z" fill="#2D9DCA"/>
<path d="M163.025 19.6275H160.889L161.342 18.6558H163.478L163.025 19.6275Z" fill="#2D9DCA"/>
<path d="M145.292 5.50604H143.998V18.1376H145.292V5.50604Z" fill="#AC2048"/>
<path d="M145.292 18.1376H143.998V30.7692H145.292V18.1376Z" fill="#D48238"/>
<path d="M145.292 30.7692H143.998V43.4008H145.292V30.7692Z" fill="#E2AB52"/>
</svg>
