<svg width="17" height="16" viewBox="0 0 17 16" fill="none" xmlns="http://www.w3.org/2000/svg">
<g clip-path="url(#clip0)">
<path d="M15.1359 7.34473L12.8173 5.0117V1.44014C12.8173 0.648065 12.1692 0 11.3772 0H5.06933C4.27725 0 3.62918 0.648065 3.62918 1.44014V2.27543H4.59408V1.44014C4.59408 1.18092 4.8101 0.964897 5.06933 0.964897H11.3628C11.622 0.964897 11.838 1.18092 11.838 1.44014V7.21512C11.2475 6.63906 10.297 6.63906 9.70659 7.22952C9.11613 7.81998 9.11613 8.77048 9.70659 9.36094L11.55 11.2763C11.1467 11.5788 10.6283 12.0972 10.2538 12.9469H4.59408V11.694H3.62918V14.5455C3.62918 15.3375 4.27725 15.9856 5.06933 15.9856H14.8911C15.1215 15.9856 15.3232 15.8272 15.3664 15.5968L16.2592 11.1323C16.5473 9.74978 16.1296 8.32403 15.1359 7.34473ZM9.8074 15.0351H5.06933C4.8101 15.0351 4.59408 14.8191 4.59408 14.5599V13.9118H9.96581C9.87941 14.243 9.8362 14.6175 9.8074 15.0351ZM15.3232 10.9595L14.5023 15.0351C13.7246 15.0351 11.5644 15.0351 10.7723 15.0351C10.8443 14.0126 11.1323 13.1485 11.6364 12.5293C12.054 12.0108 12.4717 11.838 12.5005 11.8236C12.8173 11.7084 12.9325 11.3051 12.6733 11.0459C10.3979 8.66967 10.4123 8.68407 10.3979 8.68407C10.1818 8.46805 10.1818 8.12241 10.3979 7.90639C10.6139 7.69037 10.9595 7.69037 11.1611 7.90639C12.1836 8.94329 11.6796 8.45365 13.4654 10.225C13.6526 10.4122 13.955 10.4122 14.1422 10.225C14.3295 10.0378 14.3295 9.73537 14.1422 9.54816L12.8173 8.19442V6.37984L14.4591 8.0216C15.2223 8.78488 15.5392 9.87939 15.3232 10.9595Z" fill="#5C5C5C"/>
<path d="M4.23402 3.24033C2.54906 3.24033 1.13771 4.37804 0.720072 5.9334H0L1.81458 7.51755C1.75698 7.28713 1.74257 7.14312 1.74257 6.89829C1.74257 6.55266 1.81458 6.23583 1.92979 5.9334C2.30423 5.0261 3.19712 4.39244 4.23402 4.39244C5.18452 4.39244 6.0054 4.92529 6.42304 5.68857V3.9604C5.81818 3.51395 5.05491 3.24033 4.23402 3.24033Z" fill="#5C5C5C"/>
<path d="M6.66787 6.29343C6.71107 6.49505 6.73988 6.65347 6.73988 6.89829C6.73988 7.24393 6.66787 7.57516 6.53826 7.87759C6.16382 8.77048 5.27093 9.40414 4.23403 9.40414C3.26913 9.40414 2.41945 8.85689 2.0162 8.05041V9.79298C2.63547 10.2682 3.39874 10.5563 4.23403 10.5563C5.919 10.5563 7.33034 9.41854 7.74798 7.87759H8.45365L6.66787 6.29343Z" fill="#5C5C5C"/>
</g>
<defs>
<clipPath id="clip0">
<rect width="16.36" height="16" fill="white"/>
</clipPath>
</defs>
</svg>
