<svg width="16" height="16" viewBox="0 0 16 16" fill="none" xmlns="http://www.w3.org/2000/svg">
<path d="M15.5312 11.5312H14.9688V10.5C14.9688 10.2411 14.7589 10.0312 14.5 10.0312C14.2411 10.0312 14.0312 10.2411 14.0312 10.5V11.5312H12.4688V0.46875C12.4688 0.209875 12.2589 0 12 0H4C3.74113 0 3.53125 0.209875 3.53125 0.46875V11.5312H1.96875V10.5C1.96875 10.2411 1.75888 10.0312 1.5 10.0312C1.24112 10.0312 1.03125 10.2411 1.03125 10.5V11.5312H0.46875C0.209875 11.5312 0 11.7411 0 12V15.5312C0 15.7901 0.209875 16 0.46875 16H15.5312C15.7901 16 16 15.7901 16 15.5312V12C16 11.7411 15.7901 11.5312 15.5312 11.5312ZM0.9375 12.4688H3.53125V15.0625H0.9375V12.4688ZM6.71875 15.0625V13.9688H9.28125V15.0625H6.71875ZM10.2188 15.0625V13.5C10.2188 13.2411 10.0089 13.0312 9.75 13.0312H6.25C5.99113 13.0312 5.78125 13.2411 5.78125 13.5V15.0625H4.46875V0.9375H11.5312V15.0625H10.2188ZM15.0625 15.0625H12.4688V12.4688H15.0625V15.0625Z" fill="#5C5C5C"/>
<path d="M10 2.03125H6C5.74112 2.03125 5.53125 2.24112 5.53125 2.5C5.53125 2.75888 5.74112 2.96875 6 2.96875H10C10.2589 2.96875 10.4688 2.75888 10.4688 2.5C10.4688 2.24112 10.2589 2.03125 10 2.03125Z" fill="#5C5C5C"/>
<path d="M6.75 4.03125H6.25C5.99112 4.03125 5.78125 4.24112 5.78125 4.5C5.78125 4.75888 5.99112 4.96875 6.25 4.96875H6.75C7.00888 4.96875 7.21875 4.75888 7.21875 4.5C7.21875 4.24112 7.00888 4.03125 6.75 4.03125Z" fill="#5C5C5C"/>
<path d="M9.75 4.03125H9.25C8.99112 4.03125 8.78125 4.24112 8.78125 4.5C8.78125 4.75888 8.99112 4.96875 9.25 4.96875H9.75C10.0089 4.96875 10.2188 4.75888 10.2188 4.5C10.2188 4.24112 10.0089 4.03125 9.75 4.03125Z" fill="#5C5C5C"/>
<path d="M6.75 6.03125H6.25C5.99112 6.03125 5.78125 6.24112 5.78125 6.5C5.78125 6.75888 5.99112 6.96875 6.25 6.96875H6.75C7.00888 6.96875 7.21875 6.75888 7.21875 6.5C7.21875 6.24112 7.00888 6.03125 6.75 6.03125Z" fill="#5C5C5C"/>
<path d="M9.75 6.03125H9.25C8.99112 6.03125 8.78125 6.24112 8.78125 6.5C8.78125 6.75888 8.99112 6.96875 9.25 6.96875H9.75C10.0089 6.96875 10.2188 6.75888 10.2188 6.5C10.2188 6.24112 10.0089 6.03125 9.75 6.03125Z" fill="#5C5C5C"/>
<path d="M6.75 8.03125H6.25C5.99112 8.03125 5.78125 8.24112 5.78125 8.5C5.78125 8.75888 5.99112 8.96875 6.25 8.96875H6.75C7.00888 8.96875 7.21875 8.75888 7.21875 8.5C7.21875 8.24112 7.00888 8.03125 6.75 8.03125Z" fill="#5C5C5C"/>
<path d="M9.75 8.03125H9.25C8.99112 8.03125 8.78125 8.24112 8.78125 8.5C8.78125 8.75888 8.99112 8.96875 9.25 8.96875H9.75C10.0089 8.96875 10.2188 8.75888 10.2188 8.5C10.2188 8.24112 10.0089 8.03125 9.75 8.03125Z" fill="#5C5C5C"/>
<path d="M6.75 10.0312H6.25C5.99112 10.0312 5.78125 10.2411 5.78125 10.5C5.78125 10.7589 5.99112 10.9688 6.25 10.9688H6.75C7.00888 10.9688 7.21875 10.7589 7.21875 10.5C7.21875 10.2411 7.00888 10.0312 6.75 10.0312Z" fill="#5C5C5C"/>
<path d="M9.75 10.0312H9.25C8.99112 10.0312 8.78125 10.2411 8.78125 10.5C8.78125 10.7589 8.99112 10.9688 9.25 10.9688H9.75C10.0089 10.9688 10.2188 10.7589 10.2188 10.5C10.2188 10.2411 10.0089 10.0312 9.75 10.0312Z" fill="#5C5C5C"/>
</svg>
