<svg width="40" height="40" viewBox="0 0 40 40" fill="none" xmlns="http://www.w3.org/2000/svg">
<path d="M20 0C8.97219 0 0 8.97219 0 20C0 31.0277 8.97219 39.9999 20 39.9999C31.0277 39.9999 39.9999 31.0277 39.9999 20C39.9999 8.97219 31.0278 0 20 0ZM20 38.2608C9.9304 38.2608 1.7391 30.0695 1.7391 20C1.7391 9.9304 9.9304 1.7391 20 1.7391C30.0695 1.7391 38.2608 9.9304 38.2608 20C38.2608 30.0695 30.0695 38.2608 20 38.2608Z" fill="#5C5C5C"/>
<path d="M20 8.69568C19.52 8.69568 19.1304 9.08527 19.1304 9.56527V30.4348C19.1304 30.9148 19.52 31.3044 20 31.3044C20.4799 31.3044 20.8695 30.9147 20.8695 30.4347V9.56519C20.8695 9.08519 20.4799 8.69568 20 8.69568Z" fill="#5C5C5C"/>
<path d="M27.5722 15.9061L20.6157 8.94966C20.2766 8.61053 19.7252 8.61053 19.3861 8.94966L12.4296 15.9061C12.0905 16.2453 12.0905 16.7966 12.4296 17.1357C12.7687 17.4749 13.3201 17.4749 13.6592 17.1357L20 10.7949L26.3409 17.1375C26.5113 17.3062 26.7339 17.3915 26.9565 17.3915C27.1791 17.3915 27.4017 17.3063 27.5722 17.1358C27.9113 16.7965 27.9113 16.2453 27.5722 15.9061Z" fill="#5C5C5C"/>
</svg>
